<svg width="30" height="22" viewBox="0 0 30 22" fill="none" xmlns="http://www.w3.org/2000/svg">
<path d="M27.3633 0.237305H2.63672C1.1799 0.237305 0 1.42453 0 2.87402V18.6943C0 20.1524 1.18857 21.3311 2.63672 21.3311H27.3633C28.8079 21.3311 30 20.1574 30 18.6943V2.87402C30 1.42711 28.8248 0.237305 27.3633 0.237305ZM26.994 1.99512C26.4553 2.53096 17.1846 11.7529 16.8645 12.0713C16.3664 12.5694 15.7043 12.8436 15 12.8436C14.2957 12.8436 13.6336 12.5693 13.1339 12.0697C12.9186 11.8555 3.75018 2.73539 3.00598 1.99512H26.994ZM1.75781 18.3366V3.23291L9.35379 10.7889L1.75781 18.3366ZM3.00709 19.5732L10.6001 12.0285L11.8926 13.3143C12.7226 14.1443 13.8262 14.6014 15 14.6014C16.1738 14.6014 17.2774 14.1443 18.1058 13.3159L19.3999 12.0285L26.9929 19.5732H3.00709ZM28.2422 18.3366L20.6462 10.7889L28.2422 3.23291V18.3366Z" fill="#5DB87F"/>
</svg>
