<svg width="31" height="31" viewBox="0 0 31 31" fill="none" xmlns="http://www.w3.org/2000/svg">
<path d="M21.827 30.7842C20.8586 30.7842 19.8984 30.613 18.9595 30.2719C14.8231 28.7692 10.9836 26.3219 7.85595 23.1943C4.72835 20.0668 2.28099 16.2272 0.77841 12.0908C0.295559 10.7615 0.153065 9.38926 0.355029 8.01213C0.544221 6.72218 1.04389 5.46991 1.80007 4.39065C2.55959 3.30665 3.57216 2.40505 4.72829 1.78334C5.96117 1.12038 7.30683 0.78418 8.72803 0.78418C9.17004 0.78418 9.55205 1.09301 9.64469 1.52518L11.1162 8.39203C11.1828 8.70298 11.0872 9.02652 10.8624 9.25139L8.34806 11.7657C10.72 16.4814 14.5687 20.3302 19.2845 22.7021L21.7988 20.1878C22.0236 19.9629 22.3472 19.8675 22.6581 19.934L29.525 21.4055C29.9572 21.4981 30.266 21.8801 30.266 22.3221C30.266 23.7433 29.9298 25.089 29.2668 26.3219C28.645 27.478 27.7434 28.4906 26.6594 29.2501C25.5802 30.0063 24.328 30.506 23.038 30.6952C22.6337 30.7545 22.2296 30.7841 21.827 30.7842ZM7.97899 2.70012C6.10436 2.90706 4.44049 3.88964 3.33557 5.46662C2.09308 7.23989 1.80335 9.42095 2.54066 11.4507C5.42945 19.403 11.6472 25.6208 19.5996 28.5096C21.6293 29.2469 23.8103 28.9572 25.5836 27.7147C27.1606 26.6098 28.1432 24.9459 28.3502 23.0713L22.764 21.8743L20.1382 24.5001C19.8587 24.7795 19.4342 24.8537 19.0767 24.6857C13.4994 22.0655 8.98477 17.5509 6.36457 11.9736C6.19659 11.616 6.27076 11.1915 6.55019 10.9121L9.17601 8.28627L7.97899 2.70012Z" fill="#5DB87F"/>
</svg>
